<svg xmlns="http://www.w3.org/2000/svg" width="250" height="32" viewBox="0 0 250 32" fill="none">
  <path d="M26.0613 16.1791C26.0613 18.3638 25.8488 20.3674 25.4132 22.1898C24.9776 24.0066 24.3295 25.5744 23.4689 26.8932C22.6084 28.2119 21.5459 29.2307 20.2763 29.9552C19.3573 30.4815 18.3373 30.8155 17.2005 30.9569C14.3212 28.1497 15.543 20.2598 18.5976 19.8806C17.2695 23.7463 18.9748 26.1234 20.4144 26.2593C23.4265 26.5479 26.2207 21.1484 26.0242 14.5547C26.0507 15.0924 26.0613 15.6301 26.0613 16.1791Z" fill="#EFE7FF"/>
  <path d="M27.7687 26.9438C24.6769 30.5661 20.1456 32.7226 17.9675 31.5453C17.6807 31.3925 17.4257 31.2001 17.1973 30.968C18.3341 30.8208 19.3594 30.4869 20.2731 29.9662C21.5427 29.2361 22.5998 28.223 23.4657 26.9042C24.3316 25.5855 24.9797 24.0177 25.41 22.2009C25.8456 20.3784 26.0581 18.3748 26.0581 16.1901C26.0581 15.6411 26.0475 15.1034 26.0156 14.5714V14.5544C25.9838 13.5526 25.8828 12.5225 25.7075 11.4755C24.916 6.82872 22.483 1.39525 20.1881 0.00292969C20.7352 0.155746 21.2665 0.348181 21.7871 0.580235C21.8083 0.580235 21.8349 0.591555 21.8508 0.608534C24.2785 1.71221 28.4752 4.40064 30.632 10.0605C32.7303 15.5506 31.5935 22.4726 27.7687 26.9438Z" fill="#B79EF4"/>
  <path d="M13.0826 12.1037C14.4106 8.24368 12.7054 5.8722 11.2658 5.7307C8.35465 5.44771 5.64539 10.4906 5.64539 16.7731C5.63477 16.575 5.63477 16.3769 5.63477 16.1731C5.63477 13.9658 5.86319 11.9396 6.30411 10.0888C6.74503 8.23236 7.39844 6.63062 8.26965 5.27226C9.14087 3.91389 10.2086 2.8555 11.473 2.09708C12.392 1.55373 13.4013 1.20282 14.5222 1.05566C17.3536 3.90257 16.1265 11.7302 13.0826 12.1037Z" fill="#EFE7FF"/>
  <path d="M11.4881 31.993C11.1109 31.8798 10.7444 31.7609 10.3885 31.6308C10.3566 31.6194 10.33 31.6025 10.2928 31.5911C10.2238 31.5628 10.1441 31.5345 10.0644 31.5006C9.99535 31.4666 9.91567 31.4327 9.83598 31.4044C7.41359 30.3007 3.20095 27.6066 1.03886 21.9411C-0.549509 17.7754 -0.283896 12.7891 1.61259 8.67438C1.68164 8.51024 1.76133 8.35176 1.84101 8.19329C2.00038 7.87634 2.17037 7.56504 2.35099 7.25941C2.69098 6.68777 3.05752 6.14442 3.45063 5.61805C3.58344 5.44826 3.71624 5.27846 3.85968 5.10867C3.8703 5.09169 3.89155 5.06905 3.90749 5.05207C3.92874 5.02377 3.9553 4.99547 3.97655 4.96717C7.0736 1.40146 11.5518 -0.715324 13.7086 0.450606C14.0061 0.614742 14.2717 0.818497 14.5108 1.06187C13.3899 1.21469 12.3806 1.55994 11.4615 2.10328C10.1972 2.86736 9.12945 3.9201 8.25824 5.27846C7.38702 6.63683 6.73362 8.23857 6.2927 10.095C5.85178 11.9458 5.62335 13.972 5.62335 16.1793C5.62335 16.3831 5.62335 16.5812 5.63398 16.7793C5.63398 16.9547 5.63398 17.1359 5.6446 17.3113C5.65522 17.9735 5.70303 18.6414 5.78803 19.3262C5.80397 19.5413 5.83584 19.7507 5.87303 19.9714C5.89428 20.1639 5.92615 20.345 5.95802 20.5374C5.96865 20.6223 5.9899 20.7072 6.00583 20.7921C6.08552 21.2732 6.18645 21.7373 6.2927 22.1958C6.40425 22.6486 6.52644 23.09 6.65924 23.5145C6.66987 23.5598 6.68049 23.5994 6.70174 23.6447C7.82263 27.3576 9.70318 30.9063 11.4881 31.993Z" fill="#B79EF4"/>
  <path fill-rule="evenodd" clip-rule="evenodd" d="M221.391 31.9895H218.602L231.92 16.2098L219.775 0H226.091L235.263 12.2819L245.597 0H248.408L236.543 14.0421L250.001 31.9895H243.641L233.206 17.97L221.391 31.9895ZM73.6929 0.00585938V23.4037H73.4582L54.8074 0.00585938H49.7772V31.984H52.1805V6.72977H52.3706L72.6533 31.984H76.0291V0.00585938H73.6929ZM90.9022 30.7217C92.9311 31.565 95.1164 31.9895 97.4526 31.9895C99.0176 31.9895 100.515 31.7971 101.935 31.4122C103.36 31.0273 104.696 30.484 105.931 29.7765C107.166 29.069 108.29 28.2257 109.29 27.2409C110.291 26.2561 111.151 25.1637 111.872 23.9638C112.599 22.7639 113.152 21.4735 113.538 20.0981C113.924 18.7228 114.119 17.2965 114.119 15.8193C114.119 14.3591 113.924 12.9497 113.538 11.597C113.147 10.2443 112.593 8.98785 111.872 7.81626C111.151 6.65033 110.291 5.58628 109.29 4.6241C108.29 3.66193 107.166 2.84125 105.931 2.1564C104.696 1.47156 103.36 0.945196 101.935 0.565986C100.504 0.186775 99.012 0 97.447 0C95.8821 0 94.3842 0.186775 92.959 0.565986C91.5338 0.939536 90.2036 1.47156 88.974 2.1564C87.7444 2.84125 86.6266 3.66193 85.615 4.6241C84.6089 5.58062 83.7482 6.65033 83.0328 7.81626C82.323 8.98219 81.7697 10.2443 81.384 11.597C80.9984 12.9497 80.8028 14.3591 80.8028 15.8193C80.8028 18.0493 81.2331 20.1491 82.0883 22.1074C82.949 24.0714 84.1227 25.7863 85.6206 27.2522C87.1128 28.7181 88.8734 29.8784 90.9022 30.7217ZM102.041 29.369C100.711 30.1048 99.1853 30.467 97.4526 30.467C95.6921 30.467 94.1495 30.1048 92.8193 29.369C91.4891 28.6389 90.3769 27.6201 89.4714 26.3127C88.566 25.0052 87.8841 23.4601 87.4314 21.6772C86.9787 19.8944 86.7495 17.9417 86.7495 15.8193C86.7495 13.7138 86.9731 11.7838 87.4314 10.0293C87.8897 8.27471 88.566 6.76353 89.4714 5.49572C90.3769 4.22225 91.4891 3.2431 92.8193 2.54128C94.1439 1.84511 95.6921 1.4942 97.4526 1.4942C99.1853 1.4942 100.711 1.83945 102.041 2.54128C103.371 3.2431 104.489 4.22791 105.4 5.49572C106.311 6.76353 106.999 8.27471 107.463 10.0293C107.927 11.7838 108.156 13.7138 108.156 15.8193C108.156 17.9417 107.927 19.8944 107.463 21.6772C106.999 23.4601 106.311 25.0052 105.4 26.3127C104.489 27.6201 103.371 28.6389 102.041 29.369ZM118.904 0H131.625C133.307 0 134.856 0.186775 136.258 0.565986C137.667 0.945196 138.869 1.47722 139.88 2.16772C140.886 2.85823 141.669 3.69023 142.228 4.6524C142.781 5.62024 143.06 6.67863 143.06 7.8389C143.06 8.72184 142.971 9.51422 142.798 10.2047C142.624 10.8952 142.311 11.5348 141.87 12.1234C141.423 12.712 140.836 13.2667 140.093 13.7874C139.355 14.3081 138.421 14.8458 137.292 15.3891V15.4854C138.421 15.6608 139.439 15.9665 140.344 16.4023C141.249 16.8381 142.021 17.3871 142.669 18.0549C143.312 18.7228 143.809 19.5039 144.156 20.3925C144.502 21.2867 144.681 22.2602 144.681 23.3243C144.681 24.5298 144.424 25.6618 143.904 26.7145C143.39 27.7673 142.647 28.6842 141.691 29.4652C140.73 30.2463 139.573 30.8632 138.215 31.3103C136.856 31.7631 135.336 31.9838 133.654 31.9838H118.904V0ZM124.214 14.4043H130.982C132.044 14.4043 132.989 14.2515 133.816 13.9459C134.643 13.6403 135.342 13.2158 135.912 12.6781C136.482 12.1404 136.918 11.4952 137.209 10.7481C137.505 10.001 137.65 9.19161 137.65 8.32565C137.65 7.39177 137.477 6.54279 137.125 5.77871C136.773 5.01463 136.23 4.35809 135.493 3.81474C134.755 3.26574 133.816 2.84691 132.681 2.55825C131.547 2.2696 130.183 2.12245 128.596 2.12245H124.214V14.4043ZM124.22 29.652H129.954C131.497 29.652 132.832 29.5048 133.967 29.2049C135.101 28.9049 136.04 28.4917 136.778 27.9484C137.516 27.4107 138.064 26.7598 138.421 26.007C138.779 25.2486 138.958 24.4223 138.958 23.5224C138.958 22.5092 138.801 21.5697 138.483 20.6981C138.164 19.8265 137.645 19.0794 136.924 18.4398C136.203 17.8059 135.258 17.3022 134.09 16.9343C132.922 16.5664 131.491 16.3796 129.792 16.3796H124.22V29.652ZM156.663 0H151.348V31.9895H156.663V0ZM188.938 0V2.07717H177.503V31.9952H172.187V2.07717H160.752V0H188.938ZM214.985 2.07717V0H193.02V31.9952H214.985V29.918H198.329V15.5872H209.479V13.5101H198.329V2.07717H214.985Z" fill="#B79EF4"/>
</svg>
